{
  "accessors": [
    {
      "bufferView": 2,
      "componentType": 5126,
      "count": 65532,
      "max": [
        1.445614218711853,
        0.3951772153377533,
        2.234701156616211
      ],
      "min": [
        -1.2109745740890503,
        -2.460165500640869,
        -0.3609594404697418
      ],
      "type": "VEC3"
    },
    {
      "bufferView": 2,
      "byteOffset": 786384,
      "componentType": 5126,
      "count": 65532,
      "max": [
        0.9999398589134216,
        0.9864582419395447,
        0.999981701374054
      ],
      "min": [
        -0.998903214931488,
        -0.9999983906745911,
        -0.9999261498451233
      ],
      "type": "VEC3"
    },
    {
      "bufferView": 1,
      "componentType": 5126,
      "count": 65532,
      "max": [
        0.9971030950546265,
        0.9459771513938904
      ],
      "min": [
        0.0025760000571608543,
        0.0025760000571608543
      ],
      "type": "VEC2"
    },
    {
      "bufferView": 0,
      "componentType": 5125,
      "count": 319869,
      "type": "SCALAR"
    },
    {
      "bufferView": 2,
      "byteOffset": 1572768,
      "componentType": 5126,
      "count": 62532,
      "max": [
        0.9107269644737244,
        0.40208175778388977,
        2.4177091121673584
      ],
      "min": [
        -1.4453293085098267,
        -2.4812607765197754,
        -0.35412850975990295
      ],
      "type": "VEC3"
    },
    {
      "bufferView": 2,
      "byteOffset": 2323152,
      "componentType": 5126,
      "count": 62532,
      "max": [
        0.9989272952079773,
        0.9985995888710022,
        0.9999608397483826
      ],
      "min": [
        -0.9999897480010986,
        -0.9999983310699463,
        -0.9997711777687073
      ],
      "type": "VEC3"
    },
    {
      "bufferView": 1,
      "byteOffset": 524256,
      "componentType": 5126,
      "count": 62532,
      "max": [
        0.9973459839820862,
        0.9460378885269165
      ],
      "min": [
        0.0025760000571608543,
        0.0025760000571608543
      ],
      "type": "VEC2"
    },
    {
      "bufferView": 0,
      "byteOffset": 1279476,
      "componentType": 5125,
      "count": 288051,
      "type": "SCALAR"
    }
  ],
  "asset": {
    "extras": {
      "author": "eyesCloud3D (https://sketchfab.com/eyesCloud3D)",
      "license": "CC-BY-4.0 (http://creativecommons.org/licenses/by/4.0/)",
      "source": "https://sketchfab.com/3d-models/hat-edf60906a9134166902bcc97c2bebd56",
      "title": "Hat"
    },
    "generator": "Sketchfab-16.14.0",
    "version": "2.0"
  },
  "bufferViews": [
    {
      "buffer": 0,
      "byteLength": 2431680,
      "name": "floatBufferViews",
      "target": 34963
    },
    {
      "buffer": 0,
      "byteLength": 1024512,
      "byteOffset": 2431680,
      "byteStride": 8,
      "name": "floatBufferViews",
      "target": 34962
    },
    {
      "buffer": 0,
      "byteLength": 3073536,
      "byteOffset": 3456192,
      "byteStride": 12,
      "name": "floatBufferViews",
      "target": 34962
    }
  ],
  "buffers": [
    {
      "byteLength": 6529728,
      "uri": "scene.bin"
    }
  ],
  "images": [
    {
      "uri": "textures/material_baseColor.png"
    }
  ],
  "materials": [
    {
      "doubleSided": true,
      "name": "material",
      "pbrMetallicRoughness": {
        "baseColorTexture": {
          "index": 0
        },
        "metallicFactor": 0.0
      }
    }
  ],
  "meshes": [
    {
      "name": "Object_0",
      "primitives": [
        {
          "attributes": {
            "NORMAL": 1,
            "POSITION": 0,
            "TEXCOORD_0": 2
          },
          "indices": 3,
          "material": 0,
          "mode": 4
        }
      ]
    },
    {
      "name": "Object_1",
      "primitives": [
        {
          "attributes": {
            "NORMAL": 5,
            "POSITION": 4,
            "TEXCOORD_0": 6
          },
          "indices": 7,
          "material": 0,
          "mode": 4
        }
      ]
    }
  ],
  "nodes": [
    {
      "children": [
        1
      ],
      "matrix": [
        1.0,
        0.0,
        0.0,
        0.0,
        0.0,
        -0.9891958832740784,
        0.14659993350505807,
        0.0,
        0.0,
        -0.14659993350505807,
        -0.9891958832740784,
        0.0,
        0.0,
        0.0,
        0.0,
        1.0
      ],
      "name": "Sketchfab_model"
    },
    {
      "children": [
        2,
        3
      ],
      "name": "SombreroGPU.obj.cleaner.materialmerger.gles"
    },
    {
      "mesh": 0,
      "name": "Object_2"
    },
    {
      "mesh": 1,
      "name": "Object_3"
    }
  ],
  "samplers": [
    {
      "magFilter": 9729,
      "minFilter": 9987,
      "wrapS": 10497,
      "wrapT": 10497
    }
  ],
  "scene": 0,
  "scenes": [
    {
      "name": "Sketchfab_Scene",
      "nodes": [
        0
      ]
    }
  ],
  "textures": [
    {
      "sampler": 0,
      "source": 0
    }
  ]
}
